<svg width="535" height="519" viewBox="0 0 535 519" fill="none" xmlns="http://www.w3.org/2000/svg">
<g filter="url(#filter0_dddddf_8_311)">
<path d="M251.17 57.5195C219.187 41.9202 160.374 28.9627 126.728 40.5479C93.0819 52.1331 65.4163 76.6096 49.817 108.593C34.2178 140.576 31.9627 177.446 43.5479 211.092C55.1331 244.738 101.553 283.106 133.536 298.705C115.14 215.306 173.885 102.372 251.17 57.5195Z" fill="url(#paint0_linear_8_311)"/>
<path d="M129.658 49.0576C144.378 43.9891 165.726 44.0642 188.122 47.7218C203.633 50.2551 218.981 54.3953 231.969 59.1744C197.731 83.3645 168.287 119.75 148.417 159.644C128.928 198.772 118.198 242.199 121.843 281.821C110.412 274.627 98.161 265.363 86.999 255.054C70.3288 239.658 57.1261 222.882 52.0576 208.162C41.2495 176.773 43.3533 142.376 57.9062 112.538C72.4591 82.7003 98.2689 59.8656 129.658 49.0576Z" stroke="#6B71EB" stroke-width="18"/>
</g>
<defs>
<filter id="filter0_dddddf_8_311" x="0.458824" y="0.320961" width="533.711" height="518.384" filterUnits="userSpaceOnUse" color-interpolation-filters="sRGB">
<feFlood flood-opacity="0" result="BackgroundImageFix"/>
<feColorMatrix in="SourceAlpha" type="matrix" values="0 0 0 0 0 0 0 0 0 0 0 0 0 0 0 0 0 0 127 0" result="hardAlpha"/>
<feOffset dx="8" dy="6"/>
<feGaussianBlur stdDeviation="11.5"/>
<feColorMatrix type="matrix" values="0 0 0 0 0.419608 0 0 0 0 0.443137 0 0 0 0 0.921569 0 0 0 0.82 0"/>
<feBlend mode="normal" in2="BackgroundImageFix" result="effect1_dropShadow_8_311"/>
<feColorMatrix in="SourceAlpha" type="matrix" values="0 0 0 0 0 0 0 0 0 0 0 0 0 0 0 0 0 0 127 0" result="hardAlpha"/>
<feOffset dx="34" dy="24"/>
<feGaussianBlur stdDeviation="20.5"/>
<feColorMatrix type="matrix" values="0 0 0 0 0.419608 0 0 0 0 0.443137 0 0 0 0 0.921569 0 0 0 0.72 0"/>
<feBlend mode="normal" in2="effect1_dropShadow_8_311" result="effect2_dropShadow_8_311"/>
<feColorMatrix in="SourceAlpha" type="matrix" values="0 0 0 0 0 0 0 0 0 0 0 0 0 0 0 0 0 0 127 0" result="hardAlpha"/>
<feOffset dx="76" dy="53"/>
<feGaussianBlur stdDeviation="28"/>
<feColorMatrix type="matrix" values="0 0 0 0 0.419608 0 0 0 0 0.443137 0 0 0 0 0.921569 0 0 0 0.42 0"/>
<feBlend mode="normal" in2="effect2_dropShadow_8_311" result="effect3_dropShadow_8_311"/>
<feColorMatrix in="SourceAlpha" type="matrix" values="0 0 0 0 0 0 0 0 0 0 0 0 0 0 0 0 0 0 127 0" result="hardAlpha"/>
<feOffset dx="135" dy="95"/>
<feGaussianBlur stdDeviation="33"/>
<feColorMatrix type="matrix" values="0 0 0 0 0.419608 0 0 0 0 0.443137 0 0 0 0 0.921569 0 0 0 0.12 0"/>
<feBlend mode="normal" in2="effect3_dropShadow_8_311" result="effect4_dropShadow_8_311"/>
<feColorMatrix in="SourceAlpha" type="matrix" values="0 0 0 0 0 0 0 0 0 0 0 0 0 0 0 0 0 0 127 0" result="hardAlpha"/>
<feOffset dx="211" dy="148"/>
<feGaussianBlur stdDeviation="36"/>
<feColorMatrix type="matrix" values="0 0 0 0 0.419608 0 0 0 0 0.443137 0 0 0 0 0.921569 0 0 0 0.02 0"/>
<feBlend mode="normal" in2="effect4_dropShadow_8_311" result="effect5_dropShadow_8_311"/>
<feBlend mode="normal" in="SourceGraphic" in2="effect5_dropShadow_8_311" result="shape"/>
<feGaussianBlur stdDeviation="17.8896" result="effect6_foregroundBlur_8_311"/>
</filter>
<linearGradient id="paint0_linear_8_311" x1="62" y1="73" x2="278.264" y2="116.314" gradientUnits="userSpaceOnUse">
<stop offset="0.03" stop-color="#F5C887"/>
<stop offset="0.3" stop-color="#F592BD"/>
<stop offset="0.601154" stop-color="#6E92EC"/>
<stop offset="1" stop-color="#6B71EB"/>
</linearGradient>
</defs>
</svg>
