<svg width="869" height="349" viewBox="0 0 869 349" fill="none" xmlns="http://www.w3.org/2000/svg">
<path d="M2.358 280.749C6.97986 299.495 23.3727 314.489 49.2633 325.5C75.144 336.507 110.421 343.489 152.617 346.264C237.001 351.812 348.936 340.522 468.411 311.066C587.885 281.609 692.239 239.573 764.374 195.435C800.444 173.364 828.432 150.783 846.23 129.008C864.035 107.224 871.58 86.3279 866.958 67.5818C862.336 48.8357 845.943 33.8415 820.052 22.8307C794.172 11.8241 758.894 4.84151 716.699 2.06718C632.315 -3.48109 520.38 7.80843 400.905 37.2649C281.43 66.7214 177.076 108.758 104.942 152.896C68.8721 174.967 40.8836 197.547 23.0854 219.323C5.2803 241.107 -2.26386 262.003 2.358 280.749Z" stroke="url(#paint0_angular_8_313)" stroke-opacity="0.8"/>
<defs>
<radialGradient id="paint0_angular_8_313" cx="0" cy="0" r="1" gradientUnits="userSpaceOnUse" gradientTransform="translate(434.658 174.165) rotate(76.5122) scale(115.085 423.856)">
<stop stop-color="white"/>
<stop offset="0.482915" stop-color="#999999" stop-opacity="0.3"/>
</radialGradient>
</defs>
</svg>
