<svg width="836" height="422" viewBox="0 0 836 422" fill="none" xmlns="http://www.w3.org/2000/svg">
<path d="M3.91144 375.655C11.0443 393.597 29.3273 406.217 56.4767 413.598C83.6157 420.976 119.515 423.087 161.695 420.086C246.049 414.085 355.402 387.65 469.749 342.19C584.096 296.73 681.749 240.867 747.197 187.312C779.923 160.533 804.574 134.349 819.24 110.352C833.911 86.3448 838.537 64.6159 831.404 46.6744C824.272 28.7328 805.989 16.112 778.839 8.73142C751.7 1.35372 715.8 -0.757258 673.621 2.24338C589.267 8.2442 479.914 34.6795 365.567 80.1397C251.22 125.6 153.567 181.463 88.1188 235.017C55.3925 261.797 30.7416 287.98 16.0762 311.978C1.40529 335.985 -3.22147 357.713 3.91144 375.655Z" stroke="url(#paint0_angular_8_314)" stroke-opacity="0.8"/>
<defs>
<radialGradient id="paint0_angular_8_314" cx="0" cy="0" r="1" gradientUnits="userSpaceOnUse" gradientTransform="translate(417.658 211.165) rotate(68.6813) scale(115.085 423.856)">
<stop stop-color="white"/>
<stop offset="0.482915" stop-color="#999999" stop-opacity="0.3"/>
</radialGradient>
</defs>
</svg>
