<svg width="1236" height="496" viewBox="0 0 1236 496" fill="none" xmlns="http://www.w3.org/2000/svg">
<path d="M2.84951 399.671C9.42262 426.332 32.7363 447.656 69.5573 463.315C106.364 478.969 156.535 488.899 216.545 492.845C336.555 500.735 495.746 484.68 665.66 442.787C835.575 400.895 983.985 341.111 1086.57 278.339C1137.87 246.951 1177.68 214.837 1202.99 183.868C1228.31 152.887 1239.04 123.169 1232.47 96.509C1225.89 69.8486 1202.58 48.5242 1165.76 32.8648C1128.95 17.2115 1078.78 7.28097 1018.77 3.33536C898.761 -4.55527 739.57 11.5005 569.655 53.3929C399.741 95.2853 251.33 155.069 148.742 217.841C97.4446 249.229 57.6399 281.344 32.3275 312.312C7.00559 343.293 -3.72361 373.011 2.84951 399.671Z" stroke="url(#paint0_angular_8_460)" stroke-opacity="0.8" stroke-width="1.42218"/>
<defs>
<radialGradient id="paint0_angular_8_460" cx="0" cy="0" r="1" gradientUnits="userSpaceOnUse" gradientTransform="translate(617.658 248.09) rotate(76.5122) scale(163.671 602.799)">
<stop stop-color="white"/>
<stop offset="0.482915" stop-color="#999999" stop-opacity="0.2"/>
</radialGradient>
</defs>
</svg>
