<svg width="869" height="349" viewBox="0 0 869 349" fill="none" xmlns="http://www.w3.org/2000/svg">
<path d="M2.358 280.673C6.97986 299.419 23.3727 314.413 49.2633 325.424C75.144 336.431 110.421 343.413 152.617 346.187C237.001 351.736 348.936 340.446 468.411 310.99C587.885 281.533 692.239 239.497 764.374 195.359C800.444 173.288 828.432 150.707 846.23 128.932C864.035 107.148 871.58 86.2518 866.958 67.5057C862.336 48.7595 845.943 33.7653 820.052 22.7545C794.172 11.748 758.894 4.76534 716.699 1.99101C632.315 -3.55726 520.38 7.73226 400.905 37.1888C281.43 66.6452 177.076 108.682 104.942 152.82C68.8721 174.89 40.8836 197.471 23.0854 219.247C5.2803 241.031 -2.26386 261.927 2.358 280.673Z" stroke="url(#paint0_angular_8_459)" stroke-opacity="0.8"/>
<defs>
<radialGradient id="paint0_angular_8_459" cx="0" cy="0" r="1" gradientUnits="userSpaceOnUse" gradientTransform="translate(434.658 174.089) rotate(76.5122) scale(115.085 423.856)">
<stop stop-color="white"/>
<stop offset="0.482915" stop-color="#999999" stop-opacity="0.2"/>
</radialGradient>
</defs>
</svg>
