<svg width="599" height="241" viewBox="0 0 599 241" fill="none" xmlns="http://www.w3.org/2000/svg">
<path d="M1.5754 193.582C4.76229 206.508 16.0656 216.846 33.9179 224.439C51.7633 232.028 76.088 236.843 105.183 238.756C163.368 242.581 240.55 234.797 322.931 214.486C405.312 194.175 477.267 165.19 527.006 134.755C551.877 119.537 571.176 103.967 583.448 88.9519C595.725 73.9313 600.927 59.523 597.74 46.5971C594.553 33.6711 583.25 23.3322 565.398 15.74C547.552 8.15064 523.228 3.33593 494.133 1.42295C435.947 -2.40273 358.765 5.3817 276.384 25.6927C194.003 46.0038 122.048 74.9891 72.3098 105.423C47.4387 120.642 28.1398 136.212 15.8675 151.227C3.59037 166.247 -1.6115 180.656 1.5754 193.582Z" stroke="url(#paint0_angular_8_455)" stroke-opacity="0.8" stroke-width="0.689527"/>
<defs>
<radialGradient id="paint0_angular_8_455" cx="0" cy="0" r="1" gradientUnits="userSpaceOnUse" gradientTransform="translate(299.658 120.089) rotate(76.5122) scale(79.3541 292.26)">
<stop stop-color="white"/>
<stop offset="0.482915" stop-color="#999999" stop-opacity="0.2"/>
</radialGradient>
</defs>
</svg>
